<svg xmlns="http://www.w3.org/2000/svg" width="1037" height="479" viewBox="0 0 1037 479">
    <defs>
        <linearGradient id="a" x1="52.544%" x2="50%" y1="46.822%" y2="100%">
            <stop offset="0%" stop-color="#61E3FF"/>
            <stop offset="100%" stop-color="#32C3FF"/>
        </linearGradient>
    </defs>
    <path fill="url(#a)" fill-rule="evenodd" d="M173.304 919.191c1.74 6.38 4.269 11.121 6.812 15.397 3.521 5.92 7.326 10.63 11.393 14.72 8.751 8.801 18.72 15.213 37.726 20.268l448.204 129.75c34.218 9.1 56.796 5.414 81.912-19.702l323.942-323.942c25.117-25.117 21.164-51.526 11.946-85.86l-130.592-450.13c-1.141-4.183-2.068-7.45-3.454-10.4-3.095-6.58-6.409-11.228-11.453-16.272-7.303-7.303-14.565-14.488-35.264-19.993L476.457 44.023C442.24 34.92 406.2 28.355 381.083 53.47L56.315 379.404C31.2 404.52 32.98 438.947 42.197 473.282l131.107 445.91z" transform="rotate(-4 -8274.012 1336.231)"/>
</svg>
